<mxfile host="app.diagrams.net" agent="Mozilla/5.0 (Windows NT 10.0; Win64; x64) AppleWebKit/537.36 (KHTML, like Gecko) Chrome/131.0.0.0 Safari/537.36 Edg/131.0.0.0" version="25.0.3">
  <diagram id="C5RBs43oDa-KdzZeNtuy" name="Page-1">
    <mxGraphModel dx="915" dy="643" grid="1" gridSize="10" guides="1" tooltips="1" connect="1" arrows="1" fold="1" page="1" pageScale="1" pageWidth="827" pageHeight="1169" math="0" shadow="0">
      <root>
        <mxCell id="WIyWlLk6GJQsqaUBKTNV-0" />
        <mxCell id="WIyWlLk6GJQsqaUBKTNV-1" parent="WIyWlLk6GJQsqaUBKTNV-0" />
        <mxCell id="Wp74oqSIDN3N8k2jxghB-112" value="" style="edgeStyle=orthogonalEdgeStyle;rounded=0;orthogonalLoop=1;jettySize=auto;html=1;" parent="WIyWlLk6GJQsqaUBKTNV-1" source="Wp74oqSIDN3N8k2jxghB-17" target="Wp74oqSIDN3N8k2jxghB-20" edge="1">
          <mxGeometry relative="1" as="geometry" />
        </mxCell>
        <mxCell id="Wp74oqSIDN3N8k2jxghB-17" value="main()函数开始" style="strokeWidth=2;html=1;shape=mxgraph.flowchart.start_1;whiteSpace=wrap;" parent="WIyWlLk6GJQsqaUBKTNV-1" vertex="1">
          <mxGeometry x="320" y="90" width="100" height="60" as="geometry" />
        </mxCell>
        <mxCell id="Wp74oqSIDN3N8k2jxghB-59" style="edgeStyle=orthogonalEdgeStyle;rounded=0;orthogonalLoop=1;jettySize=auto;html=1;" parent="WIyWlLk6GJQsqaUBKTNV-1" source="Wp74oqSIDN3N8k2jxghB-20" edge="1">
          <mxGeometry relative="1" as="geometry">
            <mxPoint x="370" y="330" as="targetPoint" />
            <Array as="points">
              <mxPoint x="500" y="225" />
              <mxPoint x="500" y="270" />
            </Array>
          </mxGeometry>
        </mxCell>
        <mxCell id="Wp74oqSIDN3N8k2jxghB-113" style="edgeStyle=orthogonalEdgeStyle;rounded=0;orthogonalLoop=1;jettySize=auto;html=1;entryX=0.5;entryY=0;entryDx=0;entryDy=0;" parent="WIyWlLk6GJQsqaUBKTNV-1" source="Wp74oqSIDN3N8k2jxghB-20" target="Wp74oqSIDN3N8k2jxghB-22" edge="1">
          <mxGeometry relative="1" as="geometry" />
        </mxCell>
        <mxCell id="Wp74oqSIDN3N8k2jxghB-20" value="读取命令行参数&lt;span style=&quot;background-color: initial;&quot;&gt;readCommandline()&lt;/span&gt;" style="rounded=1;whiteSpace=wrap;html=1;absoluteArcSize=1;arcSize=14;strokeWidth=2;" parent="WIyWlLk6GJQsqaUBKTNV-1" vertex="1">
          <mxGeometry x="310" y="200" width="120" height="50" as="geometry" />
        </mxCell>
        <mxCell id="Wp74oqSIDN3N8k2jxghB-61" style="edgeStyle=orthogonalEdgeStyle;rounded=0;orthogonalLoop=1;jettySize=auto;html=1;entryX=0.5;entryY=0;entryDx=0;entryDy=0;" parent="WIyWlLk6GJQsqaUBKTNV-1" source="Wp74oqSIDN3N8k2jxghB-22" target="Wp74oqSIDN3N8k2jxghB-23" edge="1">
          <mxGeometry relative="1" as="geometry">
            <mxPoint x="370" y="400" as="targetPoint" />
            <Array as="points">
              <mxPoint x="501" y="355" />
              <mxPoint x="501" y="400" />
              <mxPoint x="370" y="400" />
            </Array>
          </mxGeometry>
        </mxCell>
        <mxCell id="Wp74oqSIDN3N8k2jxghB-114" style="edgeStyle=orthogonalEdgeStyle;rounded=0;orthogonalLoop=1;jettySize=auto;html=1;entryX=0.5;entryY=0;entryDx=0;entryDy=0;" parent="WIyWlLk6GJQsqaUBKTNV-1" source="Wp74oqSIDN3N8k2jxghB-22" target="Wp74oqSIDN3N8k2jxghB-23" edge="1">
          <mxGeometry relative="1" as="geometry" />
        </mxCell>
        <mxCell id="Wp74oqSIDN3N8k2jxghB-22" value="初始化缓存&lt;div&gt;initCache()&lt;/div&gt;" style="rounded=1;whiteSpace=wrap;html=1;absoluteArcSize=1;arcSize=14;strokeWidth=2;" parent="WIyWlLk6GJQsqaUBKTNV-1" vertex="1">
          <mxGeometry x="310" y="330" width="120" height="50" as="geometry" />
        </mxCell>
        <mxCell id="Wp74oqSIDN3N8k2jxghB-32" value="" style="edgeStyle=orthogonalEdgeStyle;rounded=0;orthogonalLoop=1;jettySize=auto;html=1;" parent="WIyWlLk6GJQsqaUBKTNV-1" source="Wp74oqSIDN3N8k2jxghB-23" target="Wp74oqSIDN3N8k2jxghB-31" edge="1">
          <mxGeometry relative="1" as="geometry" />
        </mxCell>
        <mxCell id="Wp74oqSIDN3N8k2jxghB-115" style="edgeStyle=orthogonalEdgeStyle;rounded=0;orthogonalLoop=1;jettySize=auto;html=1;entryX=0.5;entryY=0;entryDx=0;entryDy=0;" parent="WIyWlLk6GJQsqaUBKTNV-1" source="Wp74oqSIDN3N8k2jxghB-23" target="Wp74oqSIDN3N8k2jxghB-25" edge="1">
          <mxGeometry relative="1" as="geometry" />
        </mxCell>
        <mxCell id="Wp74oqSIDN3N8k2jxghB-23" value="模拟缓存过程&lt;div&gt;doCacheSimulation()&lt;/div&gt;" style="rounded=1;whiteSpace=wrap;html=1;absoluteArcSize=1;arcSize=14;strokeWidth=2;" parent="WIyWlLk6GJQsqaUBKTNV-1" vertex="1">
          <mxGeometry x="310" y="480" width="120" height="50" as="geometry" />
        </mxCell>
        <mxCell id="canstVOI08UBMech7hB9-3" value="" style="edgeStyle=orthogonalEdgeStyle;rounded=0;orthogonalLoop=1;jettySize=auto;html=1;" edge="1" parent="WIyWlLk6GJQsqaUBKTNV-1" source="Wp74oqSIDN3N8k2jxghB-25" target="canstVOI08UBMech7hB9-2">
          <mxGeometry relative="1" as="geometry" />
        </mxCell>
        <mxCell id="Wp74oqSIDN3N8k2jxghB-25" value="输出结果&lt;div&gt;printSummary()&lt;/div&gt;" style="rounded=1;whiteSpace=wrap;html=1;absoluteArcSize=1;arcSize=14;strokeWidth=2;" parent="WIyWlLk6GJQsqaUBKTNV-1" vertex="1">
          <mxGeometry x="310" y="1500" width="120" height="50" as="geometry" />
        </mxCell>
        <mxCell id="Wp74oqSIDN3N8k2jxghB-26" value="main()函数结束" style="strokeWidth=2;html=1;shape=mxgraph.flowchart.start_1;whiteSpace=wrap;" parent="WIyWlLk6GJQsqaUBKTNV-1" vertex="1">
          <mxGeometry x="320" y="1700" width="100" height="60" as="geometry" />
        </mxCell>
        <mxCell id="Wp74oqSIDN3N8k2jxghB-27" value="&lt;i&gt;s, E, b,&amp;nbsp;&lt;/i&gt;&lt;div&gt;&lt;i&gt;tracefile&lt;/i&gt;&lt;/div&gt;" style="text;html=1;align=center;verticalAlign=middle;resizable=0;points=[];autosize=1;strokeColor=none;fillColor=none;" parent="WIyWlLk6GJQsqaUBKTNV-1" vertex="1">
          <mxGeometry x="490" y="230" width="70" height="40" as="geometry" />
        </mxCell>
        <mxCell id="Wp74oqSIDN3N8k2jxghB-30" value="&lt;i&gt;cache&lt;/i&gt;" style="text;html=1;align=center;verticalAlign=middle;resizable=0;points=[];autosize=1;strokeColor=none;fillColor=none;" parent="WIyWlLk6GJQsqaUBKTNV-1" vertex="1">
          <mxGeometry x="495" y="360" width="60" height="30" as="geometry" />
        </mxCell>
        <mxCell id="Wp74oqSIDN3N8k2jxghB-34" value="" style="edgeStyle=orthogonalEdgeStyle;rounded=0;orthogonalLoop=1;jettySize=auto;html=1;" parent="WIyWlLk6GJQsqaUBKTNV-1" source="Wp74oqSIDN3N8k2jxghB-31" target="Wp74oqSIDN3N8k2jxghB-33" edge="1">
          <mxGeometry relative="1" as="geometry" />
        </mxCell>
        <mxCell id="Wp74oqSIDN3N8k2jxghB-31" value="开始&lt;div&gt;doCacheSimulation()&lt;/div&gt;" style="ellipse;whiteSpace=wrap;html=1;rounded=1;arcSize=14;strokeWidth=2;" parent="WIyWlLk6GJQsqaUBKTNV-1" vertex="1">
          <mxGeometry x="500" y="482.5" width="140" height="45" as="geometry" />
        </mxCell>
        <mxCell id="Wp74oqSIDN3N8k2jxghB-36" value="" style="edgeStyle=orthogonalEdgeStyle;rounded=0;orthogonalLoop=1;jettySize=auto;html=1;" parent="WIyWlLk6GJQsqaUBKTNV-1" source="Wp74oqSIDN3N8k2jxghB-33" target="Wp74oqSIDN3N8k2jxghB-35" edge="1">
          <mxGeometry relative="1" as="geometry" />
        </mxCell>
        <mxCell id="Wp74oqSIDN3N8k2jxghB-33" value="读取（下）一行指令" style="whiteSpace=wrap;html=1;rounded=1;arcSize=14;strokeWidth=2;" parent="WIyWlLk6GJQsqaUBKTNV-1" vertex="1">
          <mxGeometry x="707" y="487.5" width="120" height="35" as="geometry" />
        </mxCell>
        <mxCell id="Wp74oqSIDN3N8k2jxghB-44" value="" style="edgeStyle=orthogonalEdgeStyle;rounded=0;orthogonalLoop=1;jettySize=auto;html=1;" parent="WIyWlLk6GJQsqaUBKTNV-1" source="Wp74oqSIDN3N8k2jxghB-35" target="Wp74oqSIDN3N8k2jxghB-43" edge="1">
          <mxGeometry relative="1" as="geometry" />
        </mxCell>
        <mxCell id="Wp74oqSIDN3N8k2jxghB-63" style="edgeStyle=orthogonalEdgeStyle;rounded=0;orthogonalLoop=1;jettySize=auto;html=1;exitX=1;exitY=0.5;exitDx=0;exitDy=0;entryX=0.5;entryY=0;entryDx=0;entryDy=0;" parent="WIyWlLk6GJQsqaUBKTNV-1" source="Wp74oqSIDN3N8k2jxghB-35" target="Wp74oqSIDN3N8k2jxghB-43" edge="1">
          <mxGeometry relative="1" as="geometry">
            <mxPoint x="767" y="620" as="targetPoint" />
            <Array as="points">
              <mxPoint x="847" y="585" />
              <mxPoint x="847" y="620" />
              <mxPoint x="767" y="620" />
            </Array>
          </mxGeometry>
        </mxCell>
        <mxCell id="Wp74oqSIDN3N8k2jxghB-35" value="分解行指令" style="whiteSpace=wrap;html=1;rounded=1;arcSize=14;strokeWidth=2;" parent="WIyWlLk6GJQsqaUBKTNV-1" vertex="1">
          <mxGeometry x="707" y="570" width="120" height="30" as="geometry" />
        </mxCell>
        <mxCell id="Wp74oqSIDN3N8k2jxghB-39" value="&lt;div&gt;&lt;i style=&quot;&quot;&gt;type,&lt;/i&gt;&lt;/div&gt;&lt;i style=&quot;&quot;&gt;tag,&lt;/i&gt;&lt;div&gt;&lt;i style=&quot;&quot;&gt;setIndex&lt;/i&gt;&lt;/div&gt;" style="text;html=1;align=center;verticalAlign=middle;resizable=0;points=[];autosize=1;strokeColor=none;fillColor=none;" parent="WIyWlLk6GJQsqaUBKTNV-1" vertex="1">
          <mxGeometry x="850" y="570" width="70" height="60" as="geometry" />
        </mxCell>
        <mxCell id="Wp74oqSIDN3N8k2jxghB-46" value="" style="edgeStyle=orthogonalEdgeStyle;rounded=0;orthogonalLoop=1;jettySize=auto;html=1;exitX=0.086;exitY=0.49;exitDx=0;exitDy=0;exitPerimeter=0;" parent="WIyWlLk6GJQsqaUBKTNV-1" source="Wp74oqSIDN3N8k2jxghB-43" target="Wp74oqSIDN3N8k2jxghB-45" edge="1">
          <mxGeometry relative="1" as="geometry" />
        </mxCell>
        <mxCell id="Wp74oqSIDN3N8k2jxghB-50" value="" style="edgeStyle=orthogonalEdgeStyle;rounded=0;orthogonalLoop=1;jettySize=auto;html=1;exitX=0.941;exitY=0.501;exitDx=0;exitDy=0;exitPerimeter=0;" parent="WIyWlLk6GJQsqaUBKTNV-1" source="Wp74oqSIDN3N8k2jxghB-43" edge="1">
          <mxGeometry relative="1" as="geometry">
            <mxPoint x="940" y="695" as="targetPoint" />
          </mxGeometry>
        </mxCell>
        <mxCell id="Wp74oqSIDN3N8k2jxghB-43" value="type = ？" style="rhombus;whiteSpace=wrap;html=1;rounded=1;arcSize=14;strokeWidth=2;" parent="WIyWlLk6GJQsqaUBKTNV-1" vertex="1">
          <mxGeometry x="680.5" y="670" width="173" height="50" as="geometry" />
        </mxCell>
        <mxCell id="Wp74oqSIDN3N8k2jxghB-53" value="" style="edgeStyle=orthogonalEdgeStyle;rounded=0;orthogonalLoop=1;jettySize=auto;html=1;" parent="WIyWlLk6GJQsqaUBKTNV-1" source="Wp74oqSIDN3N8k2jxghB-45" edge="1">
          <mxGeometry relative="1" as="geometry">
            <mxPoint x="770" y="850" as="targetPoint" />
            <Array as="points">
              <mxPoint x="547" y="760" />
              <mxPoint x="770" y="760" />
            </Array>
          </mxGeometry>
        </mxCell>
        <mxCell id="Wp74oqSIDN3N8k2jxghB-45" value="执行一遍&lt;div&gt;simulate()&lt;/div&gt;" style="whiteSpace=wrap;html=1;rounded=1;arcSize=14;strokeWidth=2;" parent="WIyWlLk6GJQsqaUBKTNV-1" vertex="1">
          <mxGeometry x="487" y="665" width="120" height="60" as="geometry" />
        </mxCell>
        <mxCell id="Wp74oqSIDN3N8k2jxghB-48" value="type = &#39;S&#39;或&#39;L&#39;" style="text;html=1;align=center;verticalAlign=middle;resizable=0;points=[];autosize=1;strokeColor=none;fillColor=none;" parent="WIyWlLk6GJQsqaUBKTNV-1" vertex="1">
          <mxGeometry x="600" y="665" width="100" height="30" as="geometry" />
        </mxCell>
        <mxCell id="Wp74oqSIDN3N8k2jxghB-55" value="" style="edgeStyle=orthogonalEdgeStyle;rounded=0;orthogonalLoop=1;jettySize=auto;html=1;entryX=0.5;entryY=0;entryDx=0;entryDy=0;" parent="WIyWlLk6GJQsqaUBKTNV-1" target="Wp74oqSIDN3N8k2jxghB-52" edge="1">
          <mxGeometry relative="1" as="geometry">
            <mxPoint x="1010.0000000000002" y="724.97" as="sourcePoint" />
            <mxPoint x="776.9999999999998" y="819.97" as="targetPoint" />
            <Array as="points">
              <mxPoint x="1010" y="760" />
              <mxPoint x="770" y="760" />
            </Array>
          </mxGeometry>
        </mxCell>
        <mxCell id="Wp74oqSIDN3N8k2jxghB-49" value="执行两遍simulate()" style="whiteSpace=wrap;html=1;rounded=1;arcSize=14;strokeWidth=2;" parent="WIyWlLk6GJQsqaUBKTNV-1" vertex="1">
          <mxGeometry x="940" y="665" width="120" height="60" as="geometry" />
        </mxCell>
        <mxCell id="Wp74oqSIDN3N8k2jxghB-51" value="type = &#39;M&#39;" style="text;html=1;align=center;verticalAlign=middle;resizable=0;points=[];autosize=1;strokeColor=none;fillColor=none;fontStyle=0" parent="WIyWlLk6GJQsqaUBKTNV-1" vertex="1">
          <mxGeometry x="853.5" y="665" width="70" height="30" as="geometry" />
        </mxCell>
        <mxCell id="Wp74oqSIDN3N8k2jxghB-76" value="" style="edgeStyle=orthogonalEdgeStyle;rounded=0;orthogonalLoop=1;jettySize=auto;html=1;" parent="WIyWlLk6GJQsqaUBKTNV-1" source="Wp74oqSIDN3N8k2jxghB-52" target="Wp74oqSIDN3N8k2jxghB-75" edge="1">
          <mxGeometry relative="1" as="geometry" />
        </mxCell>
        <mxCell id="Wp74oqSIDN3N8k2jxghB-52" value="开始simulate()" style="ellipse;whiteSpace=wrap;html=1;rounded=1;arcSize=14;strokeWidth=2;" parent="WIyWlLk6GJQsqaUBKTNV-1" vertex="1">
          <mxGeometry x="690" y="800" width="160" height="50" as="geometry" />
        </mxCell>
        <mxCell id="Wp74oqSIDN3N8k2jxghB-60" value="S=2ˢ, E" style="text;html=1;align=center;verticalAlign=middle;resizable=0;points=[];autosize=1;strokeColor=none;fillColor=none;fontStyle=2" parent="WIyWlLk6GJQsqaUBKTNV-1" vertex="1">
          <mxGeometry x="370" y="290" width="60" height="30" as="geometry" />
        </mxCell>
        <mxCell id="Wp74oqSIDN3N8k2jxghB-62" value="cache, s,&amp;nbsp;&lt;span style=&quot;background-color: initial;&quot;&gt;b,&lt;/span&gt;&lt;div&gt;&lt;span style=&quot;background-color: initial;&quot;&gt;tracefile, result&lt;/span&gt;&lt;/div&gt;" style="text;html=1;align=center;verticalAlign=middle;resizable=0;points=[];autosize=1;strokeColor=none;fillColor=none;fontStyle=2" parent="WIyWlLk6GJQsqaUBKTNV-1" vertex="1">
          <mxGeometry x="364" y="420" width="100" height="40" as="geometry" />
        </mxCell>
        <mxCell id="Wp74oqSIDN3N8k2jxghB-74" value="setIndex, tag, cache" style="text;html=1;align=center;verticalAlign=middle;resizable=0;points=[];autosize=1;strokeColor=none;fillColor=none;fontStyle=2" parent="WIyWlLk6GJQsqaUBKTNV-1" vertex="1">
          <mxGeometry x="770" y="768" width="130" height="30" as="geometry" />
        </mxCell>
        <mxCell id="Wp74oqSIDN3N8k2jxghB-97" value="" style="edgeStyle=orthogonalEdgeStyle;rounded=0;orthogonalLoop=1;jettySize=auto;html=1;" parent="WIyWlLk6GJQsqaUBKTNV-1" source="Wp74oqSIDN3N8k2jxghB-75" target="Wp74oqSIDN3N8k2jxghB-96" edge="1">
          <mxGeometry relative="1" as="geometry" />
        </mxCell>
        <mxCell id="Wp74oqSIDN3N8k2jxghB-103" style="edgeStyle=orthogonalEdgeStyle;rounded=0;orthogonalLoop=1;jettySize=auto;html=1;exitX=1;exitY=0.5;exitDx=0;exitDy=0;entryX=0.5;entryY=0;entryDx=0;entryDy=0;" parent="WIyWlLk6GJQsqaUBKTNV-1" source="Wp74oqSIDN3N8k2jxghB-75" target="Wp74oqSIDN3N8k2jxghB-96" edge="1">
          <mxGeometry relative="1" as="geometry">
            <mxPoint x="770" y="970" as="targetPoint" />
            <mxPoint x="840" y="910" as="sourcePoint" />
            <Array as="points">
              <mxPoint x="850" y="910" />
              <mxPoint x="850" y="950" />
              <mxPoint x="770" y="950" />
            </Array>
          </mxGeometry>
        </mxCell>
        <mxCell id="Wp74oqSIDN3N8k2jxghB-75" value="访问缓存后返回状态&lt;div&gt;checkCache()&lt;/div&gt;" style="whiteSpace=wrap;html=1;rounded=1;arcSize=14;strokeWidth=2;" parent="WIyWlLk6GJQsqaUBKTNV-1" vertex="1">
          <mxGeometry x="709.5" y="880" width="120" height="60" as="geometry" />
        </mxCell>
        <mxCell id="Wp74oqSIDN3N8k2jxghB-83" value="" style="edgeStyle=orthogonalEdgeStyle;rounded=0;orthogonalLoop=1;jettySize=auto;html=1;" parent="WIyWlLk6GJQsqaUBKTNV-1" source="Wp74oqSIDN3N8k2jxghB-77" target="Wp74oqSIDN3N8k2jxghB-82" edge="1">
          <mxGeometry relative="1" as="geometry" />
        </mxCell>
        <mxCell id="Wp74oqSIDN3N8k2jxghB-86" value="" style="edgeStyle=orthogonalEdgeStyle;rounded=0;orthogonalLoop=1;jettySize=auto;html=1;entryX=0;entryY=0.5;entryDx=0;entryDy=0;exitX=0.054;exitY=0.479;exitDx=0;exitDy=0;exitPerimeter=0;" parent="WIyWlLk6GJQsqaUBKTNV-1" source="Wp74oqSIDN3N8k2jxghB-77" target="Wp74oqSIDN3N8k2jxghB-124" edge="1">
          <mxGeometry relative="1" as="geometry">
            <mxPoint x="700" y="1325" as="targetPoint" />
            <Array as="points">
              <mxPoint x="690" y="1095" />
              <mxPoint x="590" y="1095" />
              <mxPoint x="590" y="1315" />
            </Array>
          </mxGeometry>
        </mxCell>
        <mxCell id="Wp74oqSIDN3N8k2jxghB-89" value="" style="edgeStyle=orthogonalEdgeStyle;rounded=0;orthogonalLoop=1;jettySize=auto;html=1;exitX=0.965;exitY=0.488;exitDx=0;exitDy=0;exitPerimeter=0;" parent="WIyWlLk6GJQsqaUBKTNV-1" source="Wp74oqSIDN3N8k2jxghB-77" target="Wp74oqSIDN3N8k2jxghB-88" edge="1">
          <mxGeometry relative="1" as="geometry">
            <mxPoint x="860" y="1095" as="sourcePoint" />
          </mxGeometry>
        </mxCell>
        <mxCell id="Wp74oqSIDN3N8k2jxghB-77" value="res = ?" style="rhombus;whiteSpace=wrap;html=1;rounded=1;arcSize=14;strokeWidth=2;" parent="WIyWlLk6GJQsqaUBKTNV-1" vertex="1">
          <mxGeometry x="680" y="1067" width="180" height="55" as="geometry" />
        </mxCell>
        <mxCell id="Wp74oqSIDN3N8k2jxghB-80" value="res" style="text;html=1;align=center;verticalAlign=middle;resizable=0;points=[];autosize=1;strokeColor=none;fillColor=none;fontStyle=2" parent="WIyWlLk6GJQsqaUBKTNV-1" vertex="1">
          <mxGeometry x="849.5" y="920" width="40" height="30" as="geometry" />
        </mxCell>
        <mxCell id="Wp74oqSIDN3N8k2jxghB-93" value="" style="edgeStyle=orthogonalEdgeStyle;rounded=0;orthogonalLoop=1;jettySize=auto;html=1;entryX=0.5;entryY=0;entryDx=0;entryDy=0;" parent="WIyWlLk6GJQsqaUBKTNV-1" source="Wp74oqSIDN3N8k2jxghB-82" target="Wp74oqSIDN3N8k2jxghB-124" edge="1">
          <mxGeometry relative="1" as="geometry">
            <mxPoint x="770" y="1300" as="targetPoint" />
          </mxGeometry>
        </mxCell>
        <mxCell id="Wp74oqSIDN3N8k2jxghB-82" value="&lt;div&gt;向cache中加载相应数据&lt;/div&gt;loadCache()" style="whiteSpace=wrap;html=1;rounded=1;arcSize=14;strokeWidth=2;" parent="WIyWlLk6GJQsqaUBKTNV-1" vertex="1">
          <mxGeometry x="700" y="1200" width="140" height="50" as="geometry" />
        </mxCell>
        <mxCell id="Wp74oqSIDN3N8k2jxghB-84" value="&lt;span style=&quot;font-style: normal;&quot;&gt;res = &lt;/span&gt;MISS" style="text;html=1;align=center;verticalAlign=middle;resizable=0;points=[];autosize=1;strokeColor=none;fillColor=none;fontStyle=2" parent="WIyWlLk6GJQsqaUBKTNV-1" vertex="1">
          <mxGeometry x="769.5" y="1122" width="80" height="30" as="geometry" />
        </mxCell>
        <mxCell id="Wp74oqSIDN3N8k2jxghB-87" value="&lt;span style=&quot;font-style: normal;&quot;&gt;res = &lt;/span&gt;HIT" style="text;html=1;align=center;verticalAlign=middle;resizable=0;points=[];autosize=1;strokeColor=none;fillColor=none;fontStyle=2" parent="WIyWlLk6GJQsqaUBKTNV-1" vertex="1">
          <mxGeometry x="585" y="1060" width="70" height="30" as="geometry" />
        </mxCell>
        <mxCell id="Wp74oqSIDN3N8k2jxghB-101" value="" style="edgeStyle=orthogonalEdgeStyle;rounded=0;orthogonalLoop=1;jettySize=auto;html=1;" parent="WIyWlLk6GJQsqaUBKTNV-1" source="Wp74oqSIDN3N8k2jxghB-88" target="Wp74oqSIDN3N8k2jxghB-100" edge="1">
          <mxGeometry relative="1" as="geometry" />
        </mxCell>
        <mxCell id="Wp74oqSIDN3N8k2jxghB-88" value="LRU策略驱逐组内块&lt;div&gt;LRU_evict()&lt;/div&gt;" style="whiteSpace=wrap;html=1;rounded=1;arcSize=14;strokeWidth=2;" parent="WIyWlLk6GJQsqaUBKTNV-1" vertex="1">
          <mxGeometry x="970" y="1071.75" width="120" height="45.5" as="geometry" />
        </mxCell>
        <mxCell id="Wp74oqSIDN3N8k2jxghB-90" value="res = &lt;i&gt;EVICTION&lt;/i&gt;" style="text;html=1;align=center;verticalAlign=middle;resizable=0;points=[];autosize=1;strokeColor=none;fillColor=none;fontStyle=0" parent="WIyWlLk6GJQsqaUBKTNV-1" vertex="1">
          <mxGeometry x="860" y="1060" width="110" height="30" as="geometry" />
        </mxCell>
        <mxCell id="Wp74oqSIDN3N8k2jxghB-99" style="edgeStyle=orthogonalEdgeStyle;rounded=0;orthogonalLoop=1;jettySize=auto;html=1;entryX=0.5;entryY=0;entryDx=0;entryDy=0;" parent="WIyWlLk6GJQsqaUBKTNV-1" source="Wp74oqSIDN3N8k2jxghB-96" target="Wp74oqSIDN3N8k2jxghB-77" edge="1">
          <mxGeometry relative="1" as="geometry" />
        </mxCell>
        <mxCell id="Wp74oqSIDN3N8k2jxghB-96" value="&lt;div&gt;更新结果数组&lt;/div&gt;result[&lt;i&gt;res&lt;/i&gt;] ++" style="whiteSpace=wrap;html=1;rounded=1;arcSize=14;strokeWidth=2;" parent="WIyWlLk6GJQsqaUBKTNV-1" vertex="1">
          <mxGeometry x="710" y="980" width="120" height="40" as="geometry" />
        </mxCell>
        <mxCell id="Wp74oqSIDN3N8k2jxghB-102" style="edgeStyle=orthogonalEdgeStyle;rounded=0;orthogonalLoop=1;jettySize=auto;html=1;exitX=0;exitY=0.5;exitDx=0;exitDy=0;" parent="WIyWlLk6GJQsqaUBKTNV-1" source="Wp74oqSIDN3N8k2jxghB-100" edge="1">
          <mxGeometry relative="1" as="geometry">
            <mxPoint x="770" y="1200" as="targetPoint" />
            <Array as="points">
              <mxPoint x="770" y="1170" />
            </Array>
          </mxGeometry>
        </mxCell>
        <mxCell id="Wp74oqSIDN3N8k2jxghB-100" value="result[&lt;i&gt;MISS&lt;/i&gt;] ++" style="whiteSpace=wrap;html=1;rounded=1;arcSize=14;strokeWidth=2;" parent="WIyWlLk6GJQsqaUBKTNV-1" vertex="1">
          <mxGeometry x="970" y="1150" width="120" height="40" as="geometry" />
        </mxCell>
        <mxCell id="Wp74oqSIDN3N8k2jxghB-108" value="" style="edgeStyle=orthogonalEdgeStyle;rounded=0;orthogonalLoop=1;jettySize=auto;html=1;exitX=0.5;exitY=1;exitDx=0;exitDy=0;entryX=0.5;entryY=0;entryDx=0;entryDy=0;entryPerimeter=0;" parent="WIyWlLk6GJQsqaUBKTNV-1" source="Wp74oqSIDN3N8k2jxghB-124" target="Wp74oqSIDN3N8k2jxghB-123" edge="1">
          <mxGeometry relative="1" as="geometry">
            <mxPoint x="770" y="1350" as="sourcePoint" />
            <mxPoint x="770" y="1380" as="targetPoint" />
          </mxGeometry>
        </mxCell>
        <mxCell id="Wp74oqSIDN3N8k2jxghB-109" style="edgeStyle=orthogonalEdgeStyle;rounded=0;orthogonalLoop=1;jettySize=auto;html=1;exitX=1;exitY=0.5;exitDx=0;exitDy=0;entryX=1;entryY=0.5;entryDx=0;entryDy=0;exitPerimeter=0;" parent="WIyWlLk6GJQsqaUBKTNV-1" source="Wp74oqSIDN3N8k2jxghB-123" target="Wp74oqSIDN3N8k2jxghB-33" edge="1">
          <mxGeometry relative="1" as="geometry">
            <mxPoint x="840" y="490" as="targetPoint" />
            <mxPoint x="840" y="1325" as="sourcePoint" />
            <Array as="points">
              <mxPoint x="1120" y="1407" />
              <mxPoint x="1120" y="505" />
            </Array>
          </mxGeometry>
        </mxCell>
        <mxCell id="Wp74oqSIDN3N8k2jxghB-119" value="" style="edgeStyle=orthogonalEdgeStyle;rounded=0;orthogonalLoop=1;jettySize=auto;html=1;exitX=0;exitY=0.5;exitDx=0;exitDy=0;exitPerimeter=0;" parent="WIyWlLk6GJQsqaUBKTNV-1" source="Wp74oqSIDN3N8k2jxghB-123" target="Wp74oqSIDN3N8k2jxghB-118" edge="1">
          <mxGeometry relative="1" as="geometry">
            <mxPoint x="709.500011792338" y="1407.4827586206895" as="sourcePoint" />
          </mxGeometry>
        </mxCell>
        <mxCell id="Wp74oqSIDN3N8k2jxghB-110" value="否" style="text;html=1;align=center;verticalAlign=middle;resizable=0;points=[];autosize=1;strokeColor=none;fillColor=none;" parent="WIyWlLk6GJQsqaUBKTNV-1" vertex="1">
          <mxGeometry x="850" y="1380" width="40" height="30" as="geometry" />
        </mxCell>
        <mxCell id="Wp74oqSIDN3N8k2jxghB-111" value="是" style="text;html=1;align=center;verticalAlign=middle;resizable=0;points=[];autosize=1;strokeColor=none;fillColor=none;" parent="WIyWlLk6GJQsqaUBKTNV-1" vertex="1">
          <mxGeometry x="660" y="1380" width="40" height="30" as="geometry" />
        </mxCell>
        <mxCell id="Wp74oqSIDN3N8k2jxghB-120" style="edgeStyle=orthogonalEdgeStyle;rounded=0;orthogonalLoop=1;jettySize=auto;html=1;entryX=0.5;entryY=0;entryDx=0;entryDy=0;" parent="WIyWlLk6GJQsqaUBKTNV-1" source="Wp74oqSIDN3N8k2jxghB-118" target="Wp74oqSIDN3N8k2jxghB-25" edge="1">
          <mxGeometry relative="1" as="geometry" />
        </mxCell>
        <mxCell id="Wp74oqSIDN3N8k2jxghB-118" value="结束&lt;div&gt;doCacheSimulation()&lt;/div&gt;" style="ellipse;whiteSpace=wrap;html=1;strokeWidth=2;" parent="WIyWlLk6GJQsqaUBKTNV-1" vertex="1">
          <mxGeometry x="487" y="1383.75" width="147" height="47.5" as="geometry" />
        </mxCell>
        <mxCell id="Wp74oqSIDN3N8k2jxghB-121" value="result" style="text;html=1;align=center;verticalAlign=middle;resizable=0;points=[];autosize=1;strokeColor=none;fillColor=none;fontStyle=2" parent="WIyWlLk6GJQsqaUBKTNV-1" vertex="1">
          <mxGeometry x="414" y="1380" width="50" height="30" as="geometry" />
        </mxCell>
        <mxCell id="Wp74oqSIDN3N8k2jxghB-122" value="&lt;i&gt;result]HIT]&lt;/i&gt;&lt;div&gt;&lt;i&gt;result[MISS]&lt;/i&gt;&lt;/div&gt;&lt;div&gt;&lt;i&gt;result[EVICTION]&lt;/i&gt;&lt;/div&gt;" style="text;html=1;align=center;verticalAlign=middle;resizable=0;points=[];autosize=1;strokeColor=none;fillColor=none;" parent="WIyWlLk6GJQsqaUBKTNV-1" vertex="1">
          <mxGeometry x="370" y="1420" width="120" height="60" as="geometry" />
        </mxCell>
        <mxCell id="Wp74oqSIDN3N8k2jxghB-123" value="是否读取完tracefile" style="strokeWidth=2;html=1;shape=mxgraph.flowchart.decision;whiteSpace=wrap;" parent="WIyWlLk6GJQsqaUBKTNV-1" vertex="1">
          <mxGeometry x="700" y="1382.5" width="140" height="50" as="geometry" />
        </mxCell>
        <mxCell id="Wp74oqSIDN3N8k2jxghB-124" value="结束simulate()" style="ellipse;whiteSpace=wrap;html=1;strokeWidth=2;" parent="WIyWlLk6GJQsqaUBKTNV-1" vertex="1">
          <mxGeometry x="710" y="1287.5" width="120" height="55" as="geometry" />
        </mxCell>
        <mxCell id="canstVOI08UBMech7hB9-2" value="释放内存&lt;div&gt;freeCache()&lt;/div&gt;" style="whiteSpace=wrap;html=1;rounded=1;arcSize=14;strokeWidth=2;" vertex="1" parent="WIyWlLk6GJQsqaUBKTNV-1">
          <mxGeometry x="310" y="1600" width="120" height="60" as="geometry" />
        </mxCell>
        <mxCell id="canstVOI08UBMech7hB9-4" style="edgeStyle=orthogonalEdgeStyle;rounded=0;orthogonalLoop=1;jettySize=auto;html=1;entryX=0.5;entryY=0;entryDx=0;entryDy=0;entryPerimeter=0;" edge="1" parent="WIyWlLk6GJQsqaUBKTNV-1" source="canstVOI08UBMech7hB9-2" target="Wp74oqSIDN3N8k2jxghB-26">
          <mxGeometry relative="1" as="geometry" />
        </mxCell>
        <mxCell id="canstVOI08UBMech7hB9-5" value="&lt;i&gt;cache&lt;/i&gt;" style="text;html=1;align=center;verticalAlign=middle;resizable=0;points=[];autosize=1;strokeColor=none;fillColor=none;" vertex="1" parent="WIyWlLk6GJQsqaUBKTNV-1">
          <mxGeometry x="370" y="1558" width="60" height="30" as="geometry" />
        </mxCell>
      </root>
    </mxGraphModel>
  </diagram>
</mxfile>
